<?xml version="1.0" encoding="UTF-8"?>
<svg id="Layer_1" data-name="Layer 1" xmlns="http://www.w3.org/2000/svg" viewBox="0 0 3071.15 706.31">
  <path d="M3071.15,537.27c-1.3,9.46-2.61,18.45-3.89,27.45-4.28,30.02-13.84,57.94-33.01,81.91-8.07,10.09-17.81,18.39-28.69,25.41-22.7,14.64-47.99,21.55-74.48,23.59-21.89,1.69-43.91,2.08-65.88,2.21-48,.28-96,.04-144-.04-10.95-.02-14.25-3.43-14.25-14.4.01-220.33.03-440.66.05-660.99,0-1.83-.05-3.67.06-5.5.31-5.26,3.28-8.81,8.56-9.37,4.28-.46,8.64-.21,12.97-.2,56.83.1,113.66.08,170.49.42,19.02.11,37.9,2.12,56.34,7.23,29.68,8.23,55.61,22.59,74.26,47.67,15.29,20.55,24.09,44.07,27.43,69.42,5.33,40.47,4.86,81.15,2.71,121.77-1.97,37.19-16.37,69.3-42.29,96.15-1.26,1.3-2.45,2.66-4.05,4.42,4.31,3.62,8.51,6.84,12.35,10.44,19.31,18.1,31.49,40.43,37.07,66.07,3.46,15.89,5.16,32.16,7.95,48.54.3,19.3.3,38.32.3,57.81M2856.11,489.24v80.64c13.88,0,27.22,1.04,40.33-.26,17.61-1.75,26.14-10.75,26.58-28.53.76-30.94.82-61.92.04-92.86-.47-18.76-9.52-27.4-28.15-30.39-.33-.05-.66-.11-.99-.12-10.8-.33-21.62-.44-32.41-1.06-4.6-.26-5.55,1.41-5.51,5.66.19,21.98.09,43.95.09,66.93M2889.31,293.61c25.45-5.27,29.18-16.24,29.47-37.79.3-22.31.17-44.63.11-66.94-.02-8.48.07-17.01-.67-25.44-1.42-16.25-6.82-22.33-22.5-26.35-2.71-.7-5.57-1.08-8.37-1.13-8.32-.15-16.66.23-24.97-.19-5.1-.26-6.43,1.34-6.41,6.42.19,48.79.11,97.58.12,146.37,0,1.62.14,3.24.22,4.95.95.22,1.58.49,2.2.49,9.98-.07,19.96-.18,30.8-.39M2803.6,619.93c-4.39-7.35-11.05-11.38-19.29-12.89-13.86-2.53-27.86,8.47-29.23,22.83-1.4,14.73,10.09,27.92,24.19,28.71,18.95,1.06,34.38-19.3,24.33-38.66M2780.72,99.75c1.33-.07,2.67-.04,3.98-.23,12.04-1.79,21.44-12,22.22-24.09.74-11.52-7.11-22.74-18.35-26.21-11.61-3.59-24.36,1.23-30.27,11.44-9.74,16.81,1.32,36.85,22.43,39.09M2880.1,607.32c-3.63,1.09-7.54,1.66-10.85,3.38-12.11,6.3-16.65,22.36-10.11,34.56,6.49,12.1,22.56,17.29,34.4,11.11,10.84-5.66,16.36-17.64,13.55-29.39-2.79-11.64-13.2-19.51-26.99-19.66M2756.9,339.18c-6.9,18,6.25,35.6,25.23,35.15,13.23-.31,23.23-10.7,24.56-23.93,1.16-11.55-6.92-23.22-18.11-26.17-13.91-3.67-25.66,1.64-31.67,14.95M2781.57,556.94c11.17-.56,18.88-6.34,22.98-16.41,4.08-10.03,1.96-19.45-5.38-27.31-7.34-7.86-16.69-9.44-26.66-6.44-11.86,3.57-19.08,15.77-17.26,28.23,1.79,12.26,12.17,21.22,26.31,21.93M2797.73,419.61c-1.51-1.03-2.94-2.23-4.55-3.07-9.8-5.12-19.43-4.45-28.23,2-8.66,6.34-11.31,15.43-9.27,25.71,2.12,10.7,11.5,18.91,22.19,20.09,10.63,1.18,21.01-4.33,25.69-13.63,5.36-10.65,3.48-21.56-5.83-31.11M2801.34,272.35c7.88-11.61,6.6-25.78-3.11-34.4-9.92-8.8-24.42-9.06-34.27-.63-11.22,9.61-11.84,26.58-1.37,37.3,10.95,11.21,27.43,10.48,38.75-2.27M2768.96,187.57c12.2,5.78,25.03,2.95,32.71-7.2,6.72-8.89,6.45-23.31-.94-31.57-7.44-8.32-16.74-11.21-27.58-8.02-10.38,3.06-16.17,10.34-17.57,20.83-1.5,11.22,3.07,19.76,13.39,25.96M2873.33,46.07c-7.18.11-13.94,1.44-19.09,7.01-11.18,12.1-11.19,26.86.92,38.11,10.98,10.2,26.88,7.58,35.62-2.63,12.81-14.97,4.71-40.28-17.45-42.49M2997.9,424.79c4.99-9.82,4.85-19.72-.89-28.98-6.21-10.01-21.63-13.72-32.03-8.41-10.24,5.23-16.53,20.03-12.9,30.75,3.16,9.33,9.38,15.64,19.19,17.64,10.87,2.22,19.56-1.67,26.64-11M2872.43,329.69c-10.71-.54-18.12,4.7-23.07,13.69-4.75,8.62-4.26,17.3,1.01,25.57,10.46,16.42,30.17,15.01,39.64,4.04,14.46-16.76,4.12-41.42-17.58-43.29M2976.64,573.05c-6.53.25-12.23,2.27-17.09,6.91-8.52,8.13-10.47,20.25-4.63,31.04,5.26,9.72,16.67,14.87,27.49,12.4,11.87-2.71,19.47-11.69,19.55-23.8.1-14.88-7.71-24.53-25.32-26.55M3002.88,193.07c1.94-1.82,4.12-3.44,5.77-5.49,6.38-7.9,7.18-16.79,3.11-25.79-4.14-9.16-11.41-14.74-21.73-15.19-11.3-.49-21.06,5.94-24.82,15.86-4.07,10.73-1.18,21.45,7.49,28.9,7.54,6.48,20.24,8.93,30.18,1.72M3011.54,265.44c.54-5.03,1.94-10.15,1.43-15.06-1.04-9.89-10.62-18.88-20.57-20.49-10.66-1.73-20.94,3.45-26.31,13.25-5.14,9.37-3.9,20.49,3.16,28.33,12.91,14.32,32.11,11.88,42.29-6.02M3000.36,526.82c13.03-1.61,21.81-11.17,22.47-24.47.61-12.44-7.75-22.77-20.35-25.14-12.58-2.37-24.88,4.3-28.98,15.72-6.31,17.56,6.23,33.94,26.87,33.89M2938.88,111.47c3.86,2.48,7.41,5.97,11.63,7.25,12.64,3.82,26.26-4.04,30.86-17.03,4.09-11.54-2.54-25.97-14.28-31.08-9.39-4.09-22.85-2.19-27.75,4.68-7.25,10.17-11.78,21.57-.46,36.18M2954,355.79c10.97.8,19.02-4.06,24.47-13.24,6.86-11.55,2.38-27.22-9.38-33.79-13.06-7.3-27.4-3.35-34.38,9.22-9.94,17.9,3.34,36.27,19.28,37.82Z" style="fill: #676868;"/>
  <path d="M0,14.67c2.45-5.66,6.5-7.64,12.33-7.6,38.16.24,76.33.24,114.49.34,7.85.02,11.3,3.47,12.35,11.24,5.69,42.02,11.57,84.01,17.26,126.03,2.17,15.98,3.88,32.03,6.05,48.01,3.09,22.73,6.56,45.41,9.61,68.14,3.16,23.55,6.01,47.15,9.03,70.72,2.3,17.97,4.63,35.93,6.97,53.89.16,1.24.61,2.44.92,3.66.42.01.84.02,1.26.03,1.28-7.63,2.72-15.23,3.82-22.89,5.73-39.98,11.47-79.97,16.99-119.98,2.77-20.08,4.93-40.25,7.61-60.34,2.68-20.1,5.65-40.16,8.55-60.23,3.54-24.53,7.14-49.05,10.7-73.57,1.67-11.51,3.24-23.03,4.98-34.53.94-6.18,5.01-9.81,11.27-9.81,38.5.03,76.99.12,115.49.29,7.25.03,11.37,5.41,10.11,13.35-1.95,12.31-4.33,24.55-6.33,36.85-4.36,26.74-8.56,53.51-12.91,80.25-4.08,25.1-8.25,50.19-12.42,75.28-3.76,22.62-7.54,45.23-11.35,67.83-4,23.76-8.06,47.5-12.07,71.26-6.9,40.79-13.79,81.58-20.69,122.37-5.1,30.14-10.3,60.26-15.3,90.42-6.57,39.65-12.96,79.32-19.48,118.98-1.62,9.84-5.58,13.09-15.46,13.07-43-.11-85.99-.21-128.99-.32-10.4-.03-13.81-3.19-15.5-13.47-7.43-45.25-15.06-90.46-22.43-135.71-5.77-35.42-11.18-70.9-16.93-106.33-4.96-30.51-10.22-60.97-15.29-91.47-6.24-37.54-12.48-75.07-18.61-112.62-5.97-36.58-11.77-73.18-17.71-109.77-5.09-31.33-10.26-62.65-15.41-93.97-.78-4.74-1.62-9.48-2.68-14.52C0,17.87,0,16.48,0,14.67M233.17,567.92c27.25-168.18,54.51-336.35,81.81-504.84-6.32-.02-12.08-.03-17.95-.05-.41,1.49-.89,2.74-1.1,4.03-4.75,29.85-9.48,59.71-14.2,89.57-3.55,22.48-6.98,44.98-10.66,67.44-4.16,25.42-8.66,50.78-12.78,76.2-2.39,14.77-4.1,29.64-6.5,44.4-4.1,25.27-8.52,50.49-12.78,75.73-4.93,29.16-9.93,58.32-14.7,87.51-3.14,19.18-5.85,38.43-8.91,57.63-2.95,18.54-6.08,37.06-9.17,55.58-.41,2.45-1.26,4.08-4.49,3.98-8.32-.27-16.66-.14-24.99-.02-2.75.04-3.79-1.17-4.23-3.73-2.63-15.56-5.51-31.09-8.02-46.67-3.15-19.52-5.92-39.11-9.03-58.64-3.4-21.33-7.16-42.6-10.49-63.94-3.33-21.34-6.11-42.77-9.51-64.1-4.18-26.25-8.96-52.41-13.11-78.67-5.34-33.81-10.25-67.69-15.44-101.53-2.99-19.53-6.2-39.03-9.25-58.55-4.33-27.74-8.56-55.5-13-83.22-.22-1.39-1.88-3.53-3.01-3.62-5.07-.41-10.19-.2-15.87-.21,30.67,193.98,61.2,387.11,91.73,580.25,21.32.05,41.93.11,62.49.16.35-.89.71-1.49.82-2.13,4.05-23.91,8.08-47.82,12.32-72.57Z" style="fill: #676868;"/>
  <path d="M2328.18,483.74c.09-154.32.19-308.14.28-461.96,0-11.07,3.28-14.41,14.22-14.43,39.49-.09,78.99-.18,118.48-.25,8.17-.01,12.24,4.46,12.24,13.47.02,91.33,0,182.65.03,273.98.02,75.49.02,150.99.18,226.48.02,9.3.96,18.6,1.58,27.89.12,1.81.62,3.61,1.1,5.38,5.62,20.4,22.73,22.05,36.19,16.68,9.94-3.96,12.46-13.33,13.57-22.85.79-6.76,1.02-13.62,1.02-20.44.12-168.65.17-337.3.25-505.96,0-11.33,2.93-14.31,14.11-14.34,39.66-.1,79.31-.15,118.97-.22,7.9-.01,12.15,4.31,12.16,12.45.15,133.65.3,267.31.44,400.96.04,37.66.2,75.33-.05,112.99-.14,21.51-1.93,42.84-7.31,63.85-4.84,18.91-13.73,35.5-25.29,51.07-17.54,23.62-41.45,37.95-68.66,46.71-48.91,15.74-98.11,14.32-146.74-1.44-32.31-10.47-57.34-31.01-74.43-60.26-11.87-20.32-18.77-42.87-20.21-66.35-1.7-27.57-1.5-55.26-2.13-83.4M2613.03,51.22c-12.88-6.42-25.45-4.25-33.37,5.77-8.01,10.13-7.82,24.25.84,33.98,6.86,7.71,15.63,10.84,25.71,8.01,10.69-2.99,17.75-10.18,19.39-21.24,1.62-10.94-2.53-19.91-12.57-26.53M2410.91,49.21c-13.97-4.29-24.92-.51-31.72,11.19-6.98,12.02-4.31,27.77,8.53,35.92,13.12,8.34,29.01,2.96,36.73-11.15,6.86-12.53-.57-31.77-13.54-35.97M2576.35,173.8c.46.88.85,1.81,1.4,2.64,6.29,9.51,15.2,13.87,26.41,12.15,10.64-1.64,17.74-8.09,20.6-18.53,2.95-10.77.09-20.08-8.52-27.31-8.9-7.47-21.75-7.71-31.47-.81-9.65,6.84-12.96,18.73-8.41,31.87M2602.26,457.72c1.62-.38,3.26-.7,4.86-1.15,13.26-3.77,21.13-17.32,17.94-30.85-3.19-13.54-16.89-22.33-30.42-19.52-13.53,2.82-21.86,14.53-20.46,28.8,1.26,12.85,12.94,22.63,28.09,22.71M2621.75,266.73c7.02-12.21,4.76-25.76-5.69-34.05-9.65-7.65-24.96-7.15-33.53,1.1-11.46,11.04-11.09,28.17.84,38.86,11.24,10.07,28.23,7.69,38.38-5.91M2382.2,180.13c2.84,2.22,5.37,5.16,8.56,6.55,14.26,6.21,28.93-.22,34.52-14.72,3.59-9.3.73-21.86-6.5-28.6-7.28-6.79-19.69-8.37-28.96-3.7-14.41,7.26-18.09,25.4-7.63,40.48M2383.35,450.04c10.33,11.37,29.48,9.99,38.16-2.48,7.56-10.87,6.55-21.29-.32-31.96-7.02-10.9-27.13-13.54-36.32-4.56-11.27,11.02-12.07,26.33-1.52,39.01M2595.2,546.7c1.99.06,3.99.23,5.97.17,10.11-.29,19.56-7.06,22.95-16.37,3.62-9.92,1.12-21.14-6.24-28.02-7.58-7.09-20.22-8.86-29.81-4.18-9.5,4.64-14.8,14.65-13.77,26.05.94,10.45,8.85,19.19,20.89,22.35M2416.5,542.72c16.33-13.62,11.57-32.65,1.74-41.58-7.81-7.09-21.75-7.57-30.96-1.95-8.3,5.07-12.94,17.22-10.59,27.7,4.04,18.01,21.62,25.29,39.81,15.82M2515.96,619.32c-.98-.63-1.92-1.33-2.94-1.87-9.91-5.28-21.61-3.91-29.69,3.43-7.97,7.25-10.52,19.21-6.22,29.24,4.26,9.95,14.34,16.3,24.91,15.72,10.69-.59,19.65-7.36,23.19-17.52,3.6-10.32.51-20.48-9.26-29M2426.25,248.25c-1.24-6.62-4.31-12.27-9.68-16.32-10.22-7.71-27.97-6.07-35.53,5.24-8.26,12.36-6.55,28.31,5.83,37.23,8.99,6.47,19.37,6.67,28.55.26,8.59-5.99,12.44-14.85,10.83-26.4M2584.51,362.95c10.14,6.81,22.05,6.83,30.72.05,8.73-6.82,12.5-19.09,8.97-29.13-3.64-10.34-13.14-17.17-23.94-17.22-10.78-.04-20.64,6.71-24.38,16.72-3.99,10.65-.97,21.64,8.63,29.58M2426.1,347.67c.1-2.16.34-4.33.29-6.48-.28-10.87-6.74-19.9-16.54-23.24-10.57-3.6-21.34-.56-28.3,7.98-11.33,13.91-5.26,35.44,11.66,40.91,11.17,3.61,27.63.68,32.89-19.18M2434.37,584.85c-.91-.42-1.79-.88-2.72-1.24-14.68-5.63-29.23,1.6-33.86,16.8-4.29,14.06,4.37,28.66,19,32.05,11.82,2.74,24.31-3.74,29.41-15.26,4.81-10.86.04-24.49-11.83-32.35M2602.31,599.17c-.83-2.17-1.33-4.54-2.54-6.46-5.6-8.86-17.76-13-28.73-9.99-9.55,2.62-17.21,13.19-17.62,24.31-.39,10.54,6.72,21.43,16.41,24.57,9.36,3.03,18.29,1.82,25.76-4.79,8.2-7.25,9.66-16.63,6.72-27.64Z" style="fill: #676868;"/>
  <path d="M1675,235.74c.33-26.66.14-52.83,1.13-78.96.97-25.49,6.42-50.27,17.07-73.53,21.03-45.94,59.18-69.01,107.08-78.39,34.55-6.77,68.99-5.65,103.06,3.05,33.93,8.67,61.65,26.96,80.48,56.73,13.51,21.35,20.67,45.27,23.34,70.51,3.55,33.42,1.96,66.93,2.11,100.4.03,6.97-4.26,11.19-11.31,11.19-37.5.05-75,.03-112.49-.09-7.28-.02-11.37-4.34-11.39-11.69-.05-21,.21-42-.08-63-.09-6.43-.89-13.01-2.49-19.23-3.29-12.8-12.9-19.59-26.63-19.81-13.07-.21-23.25,6.62-26.49,19.26-2.01,7.81-3.02,16.08-3.03,24.15-.21,110.99-.23,221.99-.09,332.98.02,13.96.25,28.05,2.12,41.85,2.77,20.36,19.02,29.89,37.89,23.66,8.99-2.97,13.95-9.48,15.85-18.33,1.15-5.34,1.88-10.87,1.96-16.33.3-20.5.24-41,.34-61.49.01-2.83-.03-5.68.26-8.49.71-6.95,4.47-10.37,11.53-10.38,29.5-.05,59-.04,88.5-.05,8.67,0,17.33-.05,26,.02,7.23.06,10.49,3.19,10.44,10.35-.2,27.99.09,56-.97,83.97-1.17,30.9-7.22,60.82-22.91,88.06-7.53,13.07-18.16,23.42-30,32.47-21.87,16.74-47.11,25.28-74.11,28.72-44.4,5.66-87.89,2.66-129.11-16.32-22.76-10.48-41.18-26.47-53.89-48.25-10.78-18.47-17.35-38.66-19.9-59.82-2.21-18.32-4.07-36.8-4.15-55.23-.37-95.83-.12-191.66-.09-287.99M1754.5,330.68c-1.43-.44-2.84-.95-4.29-1.3-13.95-3.37-27.44,5.44-30.58,19.94-3.04,14,6.17,28.17,20,30.74,12.79,2.39,26.51-4.91,29.75-16.88,3.57-13.17.32-25.92-14.88-32.51M1747.87,507.55c-6.36-.88-12.2.36-17.51,4.1-8.92,6.28-12.85,16.64-10.36,27.63,2.16,9.52,10.59,17.96,19.38,19.4,14.19,2.32,28.57-6.62,30.73-19.12,2.89-16.69-5.21-28.74-22.25-32.01M1729.77,464.71c9.37,6.44,19.07,6.51,28.64.81,9.4-5.6,12.76-14.19,11.9-25.04-1.31-16.57-21.3-27.65-36.79-20.42-16.37,7.64-20.01,32.12-3.76,44.65M1958.49,515.83c-1.55-.98-3.04-2.05-4.65-2.92-12.11-6.56-28.3-1.42-34.75,10.99-6.55,12.59-1.64,28.42,10.77,34.75,11.71,5.97,25.56,2.82,33.04-7.51,7.85-10.85,6.33-24.66-4.4-35.31M1755.47,289.8c10.98-5.17,15.43-12.86,14.88-25.67-.76-17.7-21.62-29.43-37.14-20.88-12.6,6.94-17.64,21.03-12.04,33.68,5.61,12.67,19.45,18.09,34.3,12.88M1768.74,167.99c-.79-1.46-1.48-2.98-2.39-4.36-6.21-9.41-18.68-13.75-29.4-10.29-11.2,3.61-18.38,14.09-17.81,25.97.54,11.21,8.77,21.59,19.32,23.88,9.43,2.04,17.9-.27,24.69-7.19,7.61-7.75,8.78-17.12,5.59-28.01M1955.46,150.79c-13.43-6.84-25.95-3.94-34.17,7.92-6.54,9.44-5.8,22.24,1.82,31.44,7.06,8.53,19.63,11.29,29.89,6.56,18.89-8.7,20.54-33.04,2.47-45.92M1868.14,632.46c-4.34-10.9-13.25-16.99-24.6-16.82-10.32.15-20.11,7.11-23.36,16.58-3.77,11.01-.77,22.41,7.73,29.4,8.2,6.74,21.02,7.5,29.89,1.78,10.03-6.48,13.91-17.56,10.33-30.94M1762.76,588.64c-16.73,4.01-23.37,21.25-18.23,34.69,4.89,12.78,18.27,19.03,30.82,14.97,13.16-4.26,20.88-17.9,17.61-31.12-3.16-12.79-16.07-21-30.21-18.54M1932.4,591.84c-10.6-5.37-20.82-4.34-28.7,2.89-8.83,8.11-11.57,18.62-7.41,28.4,4.41,10.35,14.49,17.02,25.04,16.56,10.76-.47,20.24-7.85,23.26-18.11,3.27-11.07-1.11-22.18-12.2-29.74M1894.17,97.95c1.41,10.31,9.52,19.64,19.68,22.19,10.43,2.62,19.09-.75,25.83-8.82,6.7-8.03,7.47-19.25,2.41-28.52-5.34-9.77-17.12-15.15-27.49-12.55-12.05,3.02-20.28,13.81-20.42,27.69M1749.53,116.85c9.25,8.36,21.14,9.48,31.22,2.95,8.91-5.77,13.53-18.84,10.28-29.08-3.58-11.28-13.88-18.76-25.29-17.97-10.08.71-17.88,5.44-21.91,14.9-4.48,10.52-2.37,20.18,5.7,29.19M1819.31,57.72c-5.18,19.13,9.74,37.18,27.92,33.77,12.73-2.39,21.55-12.52,21.71-24.96.16-12.65-7.82-22.38-20.62-25.13-11.62-2.5-23.55,3.97-29.01,16.32Z" style="fill: #676868;"/>
  <path d="M1252.99,134.59c-42.61,0-84.74,0-127.16,0v154.81c2.36,0,4.14,0,5.93,0,36.33-.01,72.66-.03,108.99-.04,1.17,0,2.33-.02,3.5,0,9.62.18,13.18,3.75,13.18,13.47,0,25-.05,49.99-.1,74.99-.02,8.83-.05,17.66-.17,26.5-.08,6-3.79,9.92-9.8,10.44-2.15.18-4.33.08-6.5.08-36.33,0-72.66,0-108.99,0-1.82,0-3.64,0-5.91,0v155.85c2.08,0,3.83,0,5.58,0,40.66,0,81.32.14,121.98-.1,8.97-.05,14.24,1.09,14.32,14.22.17,28.66.01,57.33-.04,85.99,0,4.83-.13,9.66-.25,14.49-.22,8.95-3.6,12.39-12.54,12.41-51.66.09-103.32.15-154.98.16-33.83,0-67.66-.1-101.49-.15-10.76-.02-14.45-3.65-14.45-14.23-.01-220.64-.02-441.28-.03-661.92,0-11.2,2.86-14.03,14.17-14.04,85.16-.03,170.31-.06,255.47-.08,10.17,0,13.58,3.35,13.57,13.44,0,33.16,0,66.32-.13,99.49-.01,2.93-.44,6.03-1.48,8.75-2.14,5.61-7.19,5.68-12.66,5.48M1127.65,642.75h87.05v-16.88c-2.13,0-3.77,0-5.41,0-46.83-.06-93.66-.17-140.48-.11-4.05,0-5.57-1.03-5.49-5.29.24-12.82.09-25.65.12-38.48.15-71.49.32-142.98.47-214.47,0-2.11,0-4.21,0-7.02h142.08v-17.19c-2.01,0-3.65,0-5.3,0-43.83.08-87.65.12-131.48.29-3.84.02-5.63-.7-5.62-5.16.25-84.32.35-168.65.48-252.97,0-1.59,0-3.19,0-5.53h152.02v-16.83c-.99-.16-1.48-.32-1.97-.31-54.83.02-109.65.09-164.48-.02-4.33,0-4.3,2.09-4.3,5.23.07,36,.05,71.99.06,107.99.07,153.65.15,307.3.23,460.96,0,1.79,0,3.58,0,5.79,27.42,0,54.22,0,82.02,0Z" style="fill: #676868;"/>
  <path d="M652.15,697.87c-17.33.04-34.16.11-51,.09-10.57,0-14.77-4.31-14.77-14.89-.04-219.15,0-438.3-.32-657.45-.03-17.34,6.18-18.79,18.95-18.7,58.99.41,117.99.33,176.98.83,27,.23,53.35,4.59,78.39,15.39,36.11,15.57,58.98,42.91,70.79,79.9,4.98,15.61,7.61,31.76,7.7,48.15.46,81.32.77,162.64,1,243.96.12,43.5.11,86.99-.12,130.49-.14,26.68-1.69,53.23-10.31,78.86-5.26,15.66-13.28,29.69-23.49,42.61-21.68,27.43-51.17,41.1-84.66,46.22-20.16,3.08-40.74,4.23-61.16,4.6-35.82.65-71.66.03-107.99-.06M649.02,229.24v413.42c3,0,4.99,0,6.97,0,33.49,0,66.99.22,100.47-.09,13.79-.13,27.69-.54,41.34-2.34,33.64-4.42,64.49-24.75,73.58-62.91,4.23-17.78,5.76-35.78,5.77-53.96.06-115.31.1-230.61.05-345.92,0-8.31-.48-16.65-1.17-24.94-1.23-14.85-4.74-29.25-10.85-42.81-7.85-17.43-22.17-28.42-38.95-36.4-13.12-6.23-27.24-9.19-41.64-9.38-44.14-.58-88.29-.62-132.44-.85-.94,0-1.88.35-3.14.6,0,54.97,0,109.77,0,165.58Z" style="fill: #676868;"/>
  <path d="M2042.2,402.74c.04-127.33.08-254.16.13-380.98,0-11.19,3.08-14.21,14.19-14.22,38.5-.01,77,.18,115.49-.16,11.35-.1,16.23,3.11,16.21,16.1-.17,177.16-.05,354.32,0,531.48,0,3.46,0,6.93,0,11.03,2.25,0,4.02,0,5.79,0,34.33-.09,68.66-.16,102.99-.26,7.83-.02,10.66,2.19,11.48,9.96.49,4.62.32,9.31.3,13.97-.14,31.5-.29,62.99-.49,94.49-.06,10.1-3.5,13.45-13.55,13.45-79.16,0-158.33,0-237.49-.02-11.52,0-14.9-3.38-14.91-14.84-.05-93.16-.1-186.33-.15-279.99M2140.29,82.1c4.11-14.15-3.12-29.08-16.13-33.32-14.64-4.77-30.06,3.69-33.95,18.61-2.73,10.48,1.21,21.86,9.49,27.44,15.39,10.36,32.82,5.19,40.59-12.74M2113.8,659c14.22-.03,23.8-7.25,26.97-20.33,2.78-11.44-2.77-24.14-13-29.18-10.46-5.16-20.61-4.07-29.24,3.57-7.79,6.9-11.46,15.9-8.25,26.46,3.39,11.14,10.58,18.19,23.52,19.49M2243.71,651.8c11.98-10.75,12.7-31.76-6.12-42.54-11.19-6.41-28.57-.93-33.74,9.37-8.04,15.99-1.57,33.04,11.03,37.91,10.25,3.96,19.84,3.68,28.83-4.73M2139.75,263.52c.07-5.88,1.25-12-.01-17.58-2.41-10.63-13.37-18.27-24.09-18.26-11.53,0-21.54,7.5-25,18.71-3.33,10.81.91,22.84,9.95,29.11,10.83,7.5,30.17,7.76,39.15-11.97M2098.96,550.47c13.68,9.03,25.87,8.06,35.87-2.84,12.22-13.33,6.39-36.24-10.4-42.05-10.41-3.61-25.24.36-31.17,11.24-6.11,11.22-4.61,23.51,5.7,33.66M2113.85,459.87c9.88.71,17.29-3.58,22.95-11.39,8.88-12.25,4.6-31.04-8.76-37.81-10.4-5.27-20.59-4.22-29.3,3.23-7.95,6.79-11.49,15.89-8.39,26.38,3.31,11.18,10.75,18.04,23.51,19.59M2114.81,189.86c8.12.18,14.83-2.69,20.23-8.88,9.27-10.61,8.24-26.25-2.57-36.68-9.49-9.15-25.26-9.3-34.68.23-7.53,7.62-10.32,17.01-6.83,27.45,3.64,10.89,11.79,16.42,23.85,17.88M2098.19,324.25c-7.38,7.15-10.26,15.68-7.81,25.78,3.07,12.7,14.89,20.84,28.54,19.72,11.68-.95,21.71-11.72,22.47-24.17.66-10.67-3.98-18.89-12.81-24.21-10.21-6.15-20.38-4.4-30.39,2.88Z" style="fill: #676868;"/>
  <path d="M1457.88,706.06c-26.01-1.7-51.14-5.49-74.61-16.31-43.47-20.04-71.78-52.85-80.97-100.29-3.33-17.21-5.03-35-5.09-52.53-.4-123.63-.27-247.27-.09-370.91.04-27.12,3.06-54.03,14.02-79.1,12.2-27.9,31.62-49.75,58.6-64.64,24.88-13.73,51.83-19.37,79.78-21.49,28.78-2.18,57.22.08,85.19,7.14,18.27,4.61,35.15,12.72,49.97,24.21,16.59,12.86,30.67,28.44,39.33,47.76,8.04,17.94,14.16,36.9,14.98,56.62,1.48,35.42,2.08,70.91,2.17,106.36.25,100.64.15,201.28-.04,301.92-.06,28.8-5.29,56.91-18.41,82.58-14.29,27.96-36.74,48.18-65.53,61.25-19.6,8.9-40.02,14.49-61.47,15.98-12.43.86-24.92,1-37.85,1.43M1581.21,173.24c-1.08-12.91-.94-26.06-3.47-38.67-7.28-36.32-28.14-61.56-64.03-72.99-30.62-9.75-61.49-9.58-91.84.66-28.19,9.51-48.17,28.02-57.77,56.95-5.41,16.31-7.84,32.98-7.81,50.06.07,36.16.33,72.31.34,108.47.04,85.81,0,171.63-.04,257.44,0,17.99,2.98,35.47,8.88,52.44,8.65,24.89,25.46,42.71,49.69,52.17,34.58,13.5,69.94,13.36,105.08,1.38,24.48-8.35,41.05-25.36,51.09-48.85,7.65-17.9,9.68-36.81,9.68-56.15-.04-120.64.11-241.28.2-362.92Z" style="fill: #676868;"/>
  <path d="M530.95,697.79c-38.14-.03-75.8-.03-113.47-.08-11.05-.02-14.27-3.3-14.27-14.26,0-219.49.05-438.99-.17-658.48-.02-15.29,3.46-17.61,17.49-17.49,37.16.31,74.33.1,111.5.09,9.37,0,12.84,3.35,12.84,12.51-.04,206.66-.08,413.32-.13,619.98,0,14.83-.1,29.66-.19,44.49-.06,10.07-3.08,13.1-13.59,13.24M484.13,277.24V62.61c-5.57,0-10.54-.02-15.5.02-.95,0-1.91.21-3.03.35v579.48h18.54c0-121.69,0-242.95,0-365.21Z" style="fill: #676868;"/>
  <path d="M825.84,612.5c-12.72,7.68-26.38,11.69-40.65,12.01-37.96.85-75.93.87-113.9,1.42-4.74.07-4.5-2.53-4.49-5.7.05-65.15.08-130.3.11-195.45.04-112.97.08-225.94.13-338.91,0-1.63.16-3.27.26-5.26,4.7-.23,9.14-.65,13.58-.63,32.15.12,64.31.05,96.45.62,15.4.28,30.51,3.07,44.25,10.64,16.55,9.13,27.57,23.02,32.51,41.13,2.61,9.55,4.6,19.58,4.75,29.43.68,45.14.69,90.29.79,135.44.17,74.31.25,148.63.31,222.94.02,19.18-.72,38.27-6.73,56.76-4.87,15-13.89,26.75-27.37,35.55M785.76,141.53c-2.69-1.29-5.28-2.88-8.09-3.83-15.75-5.33-31.96-1.82-48.61-3.06,0,3.03,0,5.31,0,7.59,0,123.44-.02,246.87,0,370.31,0,17.66.23,35.32.19,52.97,0,3.26.76,5.07,4.37,4.92,13.13-.53,26.3-.46,39.37-1.64,9.17-.82,21.27-8.11,21.49-20.67.19-10.61,1.63-21.21,1.66-31.81.26-100.28.35-200.56.43-300.85.01-16.65.22-33.32-.61-49.94-.43-8.64-1.39-17.8-10.2-24Z" style="fill: #676868;"/>
  <path d="M1563.3,396.74c-.01,45.32-.13,90.13.01,134.95.06,20.01-2.45,39.53-10.17,58.08-5.82,13.98-16.38,23.8-29.6,30.64-23.32,12.07-48.28,14.7-73.83,10.53-10.71-1.75-21.59-4.61-31.45-9.06-24.14-10.89-36.57-31.22-40.9-56.62-1.87-10.94-2.93-22.16-2.95-33.25-.16-114.96-.14-229.92.12-344.87.03-14.94.58-30.04,2.75-44.8,5.88-40.01,31.06-62.76,70.1-68.76,21.61-3.32,42.85-2.24,63.42,5.43,17.15,6.4,32.34,16.04,40.08,33.24,4.85,10.77,8.13,22.59,9.97,34.28,2.05,13.07,2.21,26.51,2.25,39.8.23,69.97.16,139.95.2,210.42M1435.56,311.24c0,73.63-.04,147.26.08,220.9.01,6.28.61,12.66,1.81,18.82,1.63,8.42,5.64,16.07,13.29,20.29,19.56,10.8,51.31,5.4,51.35-29.72.15-124.44.18-248.88.17-373.32,0-4.78-.49-9.64-1.39-14.34-4.55-24.02-31.89-34.89-52.1-20.77-1.59,1.11-2.96,2.67-4.14,4.24-6.91,9.16-9.3,19.69-9.28,30.97.09,47.31.14,94.62.21,142.93Z" style="fill: #676868;"/>
</svg>